<?xml version="1.0" encoding="UTF-8"?><svg id="Layer_2" xmlns="http://www.w3.org/2000/svg" viewBox="0 0 379 70"><defs><style>.cls-1{fill:#231f20;}</style></defs><g id="Layer_2-2"><g><path class="cls-1" d="M306.29,55.12c0-.18-.02-.2-.2-.2-.13,0-.76,.04-2.5,.04h-3.51c.29-.54,.45-.92,.63-1.35,.05-.16,.15-.29,.27-.43,.07-.07,.14-.14,.14-.25,0-.09-.09-.2-.25-.23-.52-.09-1.32-.22-1.93-.27-.05,.34-.11,.61-1.1,.85,.68,.65,.52,1.12,.23,1.69h-1.17c-1.75,0-2.38-.04-2.5-.04-.18,0-.2,.02-.2,.2,0,.13,.04,1.12,.04,4.47v3.33c0,4.81-.04,5.76-.04,5.87,0,.18,.02,.2,.2,.2h1.57c.18,0,.2-.02,.2-.2v-.85h8.12v.81c0,.18,.02,.2,.2,.2h1.6c.18,0,.2-.02,.2-.2,0-.09-.04-1.04-.04-5.85v-3.8c0-2.86,.04-3.87,.04-3.98Zm-2,11.09h-8.12v-2.16h8.12v2.16Zm0-3.85h-8.12v-2.02h8.12v2.02Zm0-3.71h-8.12v-1.96h8.12v1.96Z"/><path class="cls-1" d="M325.27,56.4c0-.18-.02-.2-.2-.2-.13,0-.72,.04-2.45,.04h-3.58v-.97c0-1.22,.04-1.57,.09-1.8,.05-.18,.11-.31,.11-.43,0-.11-.11-.22-.27-.22-.63-.07-1.33-.11-2.02-.13,.13,.88,.15,1.5,.15,2.59v.95h-3.35c-1.73,0-2.32-.04-2.45-.04-.18,0-.2,.02-.2,.2,0,.11,.04,.97,.04,4.03v3.13c0,4.3-.04,5.13-.04,5.26,0,.16,.02,.18,.2,.18h1.55c.18,0,.2-.02,.2-.18v-.83h10.26v.76c0,.16,.02,.18,.2,.18h1.57c.18,0,.2-.02,.2-.18,0-.11-.04-.94-.04-5.22v-3.51c0-2.65,.04-3.51,.04-3.62Zm-8.17,9.85h-4.05v-3.39h4.05v3.39Zm0-5.1h-4.05v-3.17h4.05v3.17Zm6.21,5.1h-4.27v-3.39h4.27v3.39Zm0-5.1h-4.27v-3.17h4.27v3.17Z"/><path class="cls-1" d="M378.82,54.54c-.13,0-.7,.04-2.41,.04h-3.89v-.63c0-.4,.05-.65,.13-.77,.07-.11,.11-.22,.11-.34,0-.11-.11-.18-.29-.2-.61-.05-1.24-.09-1.91-.11,.09,.45,.11,.92,.11,1.46v.59h-3.42c-1.71,0-2.32-.04-2.43-.04-.16,0-.18,.02-.18,.2,0,.11,.04,1.13,.04,3.4,0,2.39-.11,4.05-.38,5.38-.31,1.55-.77,2.76-1.48,3.92,.32,.2,.79,.61,1.21,1.06,.18,.18,.29,.29,.36,.29,.09,0,.16-.13,.29-.36,.7-1.33,1.15-2.63,1.44-4.14,.29-1.55,.4-3.37,.4-5.8v-2.27h9.9c1.71,0,2.29,.04,2.41,.04,.16,0,.18-.02,.18-.2v-1.33c0-.18-.02-.2-.18-.2Z"/><path class="cls-1" d="M336.41,57.35c-.41,0-.95,.02-1.44,.07,.23-.76,.41-1.42,.65-2.16,.09-.25,.18-.45,.36-.68,.09-.09,.13-.18,.13-.27,0-.16-.11-.31-.29-.36-.72-.27-1.22-.4-2.16-.59,0,.76-.09,1.46-.18,2-.13,.61-.25,1.24-.54,2.27-.7,.11-1.37,.2-2.12,.27-.79,.07-1.59,.13-2.38,.13,.2,.79,.4,1.44,.56,1.85,.11,.29,.32,.32,.58,.23,.23-.09,.52-.2,.99-.29,.49-.09,1.06-.2,1.76-.31-.92,2.65-1.85,4.55-3.29,7.06-.05,.07-.07,.14-.07,.2,0,.11,.05,.18,.14,.27,.22,.2,.92,.63,1.24,.79,.22,.11,.36,.07,.47-.16,1.4-2.52,2.43-5.01,3.62-8.46,.52-.07,1.08-.13,1.51-.13,.79,0,1.03,.4,1.03,1.66,0,1.77-.32,3.48-.7,4.48-.29,.74-.56,.95-1.15,.95-.56,0-1.26-.09-2.07-.47,.25,.59,.29,1.1,.34,1.67,0,.27,.11,.41,.32,.5,.4,.18,1.01,.27,1.87,.27,1.04,0,1.91-.54,2.43-1.69,.61-1.3,.97-3.69,.97-5.64,0-2.3-.9-3.48-2.58-3.48Z"/><path class="cls-1" d="M344.67,54.76c-.4-.63-1.04-1.35-1.71-1.86-.11-.09-.16-.11-.27-.04l-.9,.65c.74,.61,1.31,1.3,1.8,2.07,.07,.11,.16,.16,.31,.05l.72-.56c.14-.11,.13-.22,.05-.32Z"/><path class="cls-1" d="M360.53,66.28c-.11,0-.65,.04-2.25,.04h-1.67v-5.22h.78c1.75,0,2.36,.04,2.47,.04,.2,0,.22-.02,.22-.2v-1.49c0-.18-.02-.2-.22-.2-.11,0-.72,.04-2.47,.04h-7.76l-.02-2.48c2.56-.33,5.42-.92,8.09-1.85,.32-.11,.61-.2,.83-.2,.22-.02,.38-.09,.38-.23,0-.16-.07-.25-.18-.36-.38-.42-.92-.92-1.46-1.32-.4,.23-.85,.45-1.35,.65-1.84,.7-4.25,1.3-6.52,1.55-.58-.2-1.26-.38-1.87-.47,.11,.97,.11,1.64,.13,2.72l.07,9.04h-.56c-1.6,0-2.16-.04-2.27-.04-.18,0-.2,.02-.2,.2v1.49c0,.18,.02,.2,.2,.2,.11,0,.67-.04,2.27-.04h11.13c1.6,0,2.14,.04,2.25,.04,.2,0,.22-.02,.22-.2v-1.49c0-.18-.02-.2-.22-.2Zm-5.89,.04h-4.97l-.04-5.22h5.01v5.22Z"/><path class="cls-1" d="M378.28,58.9c-.11,0-.7,.04-2.4,.04h-3.01v-.11c0-.68,.02-1.17,.13-1.39,.05-.13,.11-.22,.11-.4,0-.09-.13-.16-.31-.18-.67-.09-1.17-.11-1.84-.13,.09,.63,.11,1.33,.11,2.18v3.64h-1.04c-1.69,0-2.29-.04-2.4-.04-.18,0-.2,.02-.2,.2,0,.13,.04,.58,.04,1.87v1.32c0,2.34-.04,2.77-.04,2.88,0,.18,.02,.2,.2,.2h1.39c.18,0,.2-.02,.2-.2v-.54h6.39v.45c0,.16,.02,.18,.2,.18h1.44c.18,0,.2-.02,.2-.18,0-.11-.04-.56-.04-2.86v-1.49c0-1.04,.04-1.51,.04-1.62,0-.18-.02-.2-.2-.2-.11,0-.7,.04-2.41,.04h-1.96v-1.96h3.01c1.69,0,2.29,.04,2.4,.04,.18,0,.2-.02,.2-.2v-1.33c0-.18-.02-.2-.2-.2Zm-2.67,5.24v2.47h-6.39v-2.47h6.39Z"/><path class="cls-1" d="M341.96,56.79c.09,.13,.18,.14,.31,.05l.76-.56c.13-.09,.13-.18,.05-.29-.5-.77-1.15-1.49-1.71-1.93-.11-.09-.18-.11-.27-.04l-.96,.67c.7,.58,1.28,1.26,1.82,2.09Z"/><path class="cls-1" d="M340.95,56.65c-.13-.13-.22-.16-.34-.09-.49,.25-1.01,.61-1.46,.92,1.3,1.22,2.23,2.77,2.95,4.66,.05,.22,.23,.24,.41,.15,.36-.18,1.04-.61,1.35-.9,.13-.11,.14-.2,.07-.36-.67-1.73-1.77-3.22-2.99-4.38Z"/><path class="cls-1" d="M54.99,19.58c.9-.18,1.93-.57,2.86-1.22,.52-.36,.83-.92,.93-1.55,.1-.6-.18-1.09-.63-1.47-.79-.67-1.72-.81-2.69-.62-.49,.09-.79,.49-1.02,.9-.54,.95-.75,1.98-.72,3.06,0,.03,0,.05,0,.07,.08,.76,.32,.95,1.26,.82Z"/><path class="cls-1" d="M51.86,20.12c.74-.02,1.24-.44,1.37-1.21,.17-.95-.15-1.97,.38-3.11,.46-1-.39-1.44-.93-1.5-.54-.06-1.24-.09-1.54,.34-.6,.84,.16,1.91-.13,3.05-.4,1.6-.5,2.47,.85,2.43Z"/><path class="cls-1" d="M53.4,4.37c.25-.25,.26-.66,.02-.92s-.65-.27-.91-.02c-.09,.09-.97,.96-2.02,2.48,.53-.14,1.09-.17,1.65-.05,.72-.95,1.25-1.47,1.27-1.49Z"/><path class="cls-1" d="M48.89,20.12c.44-.02,.76-.35,.96-.82,.57-1.36,.65-2.84,.31-4.38-.08-.36-.26-.6-.53-.76-.69-.38-1.41-.48-2.12-.44-.98,.19-1.8,.68-2.31,1.77-.52,1.1-.3,2.39,.49,3.3,.94,1.07,2.03,1.39,3.2,1.33Z"/><path class="cls-1" d="M34.58,18.86l-.2-.06c-.06-.01-.11,.02-.13,.08l-.15,.67-.32-.22c-.06-.04-.13-.02-.15,.02l-.08,.29-.76-.05c-.09,0-.11,.08-.04,.12l.58,.33-.41,.52s.04,.12,.12,.11l.99-.15,.78,.63c.06,.05,.17,.03,.16-.03l-.1-.66h.66c.09,0,.1-.08,.03-.12l-.68-.34,.07-.29s-.05-.09-.12-.09l-.39,.02,.2-.65c.02-.06-.02-.12-.07-.13Z"/><path class="cls-1" d="M97,42.54c-.69,0-1.3-.29-1.85-.88-.55-.58-.95-1.38-1.2-2.4l-1.97,3.71c.44,1.37,1.12,2.42,2.02,3.15,.9,.73,1.99,1.09,3.26,1.09,1.79,0,3.21-.77,4.27-2.31,1.06-1.54,1.59-3.6,1.59-6.19,0-1.72-.34-3.25-1.01-4.6-.67-1.34-1.71-2.55-3.11-3.62-.18-.14-.44-.33-.78-.56-1.7-1.21-2.56-2.54-2.56-4,0-.93,.22-1.69,.64-2.27,.43-.58,1-.88,1.7-.88,.58,0,1.08,.2,1.49,.59,.41,.4,.74,1,.99,1.8l2.09-3.34c-.56-1.24-1.2-2.16-1.93-2.74-.73-.58-1.59-.88-2.59-.88-1.73,0-3.13,.73-4.21,2.2-1.08,1.46-1.62,3.33-1.62,5.61,0,1.66,.28,3.09,.84,4.29,.56,1.2,1.56,2.43,3.01,3.69,.3,.26,.71,.6,1.23,1.02,1.61,1.29,2.41,2.59,2.41,3.9,0,1.11-.24,1.99-.72,2.64-.48,.65-1.14,.98-1.97,.98Z"/><polygon class="cls-1" points="107.72 46.47 111.27 46.47 111.27 23.9 115.32 23.9 115.32 18.88 103.67 18.88 103.67 23.9 107.72 23.9 107.72 46.47"/><polygon class="cls-1" points="198.98 46.47 202.53 46.47 202.53 23.9 206.58 23.9 206.58 18.88 194.94 18.88 194.94 23.9 198.98 23.9 198.98 46.47"/><polygon class="cls-1" points="90.49 41.46 84.29 41.46 84.29 34.55 90.49 34.55 90.49 29.53 84.29 29.53 84.29 23.86 90.49 23.86 90.49 18.88 80.75 18.88 80.75 46.47 90.49 46.47 90.49 41.46"/><path class="cls-1" d="M212.53,46.87c.89,0,1.69-.16,2.39-.47s1.42-.83,2.15-1.54l1.41,1.62h3.72l-3.03-3.66c.48-.47,.93-.93,1.33-1.36s.8-.87,1.19-1.29l-1.82-1.94c-.34,.41-.7,.83-1.1,1.25-.39,.42-.83,.86-1.31,1.32l-2.8-3.24c1.12-.76,1.91-1.45,2.36-2.07,.45-.62,.67-1.29,.67-2.02,0-1.06-.38-1.91-1.15-2.54-.77-.63-1.81-.95-3.11-.95s-2.44,.34-3.24,1.01c-.8,.67-1.2,1.57-1.2,2.69,0,.66,.13,1.28,.39,1.84,.26,.57,.7,1.16,1.33,1.78-1.18,.7-2.06,1.45-2.64,2.25-.58,.8-.87,1.67-.87,2.61,0,1.43,.48,2.58,1.44,3.45,.96,.87,2.26,1.3,3.88,1.3Zm-.33-14.42c.3-.3,.7-.45,1.19-.45,.45,0,.82,.15,1.11,.44,.29,.29,.44,.68,.44,1.15,0,.39-.11,.75-.32,1.08-.21,.33-.54,.62-.97,.89l-.59,.35-.8-1c-.17-.2-.29-.41-.38-.63-.09-.23-.13-.45-.13-.67,0-.48,.15-.87,.45-1.17Zm-1.54,8.17c.26-.41,.68-.82,1.24-1.23l.35-.25,3.12,3.76c-.33,.41-.74,.73-1.21,.94s-1,.32-1.57,.32c-.63,0-1.18-.22-1.64-.67-.46-.44-.69-.97-.69-1.57,0-.46,.13-.89,.39-1.3Z"/><path class="cls-1" d="M32.46,19.85c-.86,.22-1.54,.79-1.75,1.59-.34,1.29,.67,2.69,2.26,3.12,1.59,.43,3.15-.27,3.49-1.56,.21-.8-.09-1.63-.73-2.26-.06,.03-.13,.05-.2,.05h-.29s.05,.29,.05,.29c.02,.12-.03,.25-.12,.33-.1,.09-.25,.12-.39,.09-.06-.02-.11-.04-.16-.08l-.68-.55-.86,.13c-.06,0-.12,0-.18-.01-.14-.04-.25-.14-.29-.27-.04-.12-.02-.25,.06-.34l.18-.23-.26-.15c-.06-.04-.11-.09-.15-.14Z"/><path class="cls-1" d="M42.25,17.06s.04-.03,.06-.04c-.05-1.38,.46-2.66,1.5-3.82,1.99-2.19,5.26-2.93,8.12-1.83,.49,.19,1.08,.31,1.8,.39,.4,.04,.8,.04,1.23,.05,.38,0,.77,0,1.17,.04,.15-1.32-.59-2.6-1.8-3.11-.25-1.04-1.04-1.91-2.13-2.21-1.09-.3-2.2,.06-2.93,.83-1.46-.19-2.87,.73-3.26,2.21-.09,.33-.12,.67-.09,.99-.44-.16-.91-.23-1.4-.16-.73-.78-1.84-1.13-2.93-.84-1.09,.3-1.88,1.17-2.13,2.21-.89,.38-1.52,1.15-1.74,2.06l4.55,3.23Z"/><path class="cls-1" d="M39.42,10.32c.26-.36,.59-.67,.96-.91-.75-1.21-1.47-1.84-1.53-1.9-.27-.23-.67-.2-.9,.08-.23,.27-.2,.68,.07,.91,0,0,.71,.63,1.4,1.83Z"/><path class="cls-1" d="M53.67,12.41c-.66-.07-1.34-.19-1.96-.43-2.59-.99-5.58-.35-7.42,1.66-.93,1.02-1.45,2.22-1.32,3.62,.01,.11,.02,.22,.03,.32l1.48,1.05c-.65-1.22-.57-2.66,.33-3.88,1.38-1.87,4.06-2.66,6.33-1.77,1.16,.45,2.34,.6,3.56,.56,.92-.02,1.85,.01,2.72,.39,1.47,.63,2.68,2.36,1.4,4.37-.42,.66-.94,1.15-1.62,1.5-1.35,.69-2.8,.99-4.81,1.33-.74,0-2.02,.06-3.3-.02-1.04-.06-2.05-.27-2.94-.79,.04,.31-.03,.64-.22,.92-.34,.49-.73,.92-1.15,1.3,.65,.6,1.46,1.03,2.38,1.31,2.02,.61,4.08,.54,5.8,.33,2.02-.27,3.66-.64,5.16-1.46,1.47-.8,2.4-2.06,2.56-3.73,.13-1.29-.03-2.62-.54-3.82-.72-1.72-2.17-2.5-3.95-2.66-.84-.08-1.68-.01-2.52-.1Z"/><path class="cls-1" d="M36.09,12.69l.87,.62c-.12-.18-.24-.36-.35-.56-1.06-1.95-1.16-4.38-.3-7.24,1.33,.24,4.89,1.09,6.61,3.36,.67,.11,1.3,.41,1.82,.87,.03,0,.06,0,.09,0h0c.2-1.42,.67-2.68,1.44-3.77,2.45-3.51,7.2-4.41,8.71-4.62,.93,2.81,1.16,5.34,.69,7.54,.42,.42,.74,.93,.92,1.49,.96-2.84,.77-6.18-.57-9.95-.1-.27-.36-.44-.64-.43-.28,.02-6.86,.51-10.15,5.21-.6,.86-1.05,1.79-1.34,2.8-2.48-3.19-7.72-3.85-7.94-3.88-.3-.04-.58,.15-.68,.44-1.01,3.03-1.07,5.69-.18,7.92,.34-.08,.7-.01,1.01,.2Z"/><path class="cls-1" d="M40.11,23.67c2.04,0,4.04-.97,5.3-2.78,.2-.29,.13-.7-.16-.9l-9.53-6.75c-.29-.21-.69-.13-.89,.16-.99,1.43-1.37,3.17-1.07,4.88,.01,.05,.02,.1,.03,.15,.05-.06,.11-.11,.18-.16,.17-.11,.38-.14,.58-.08l.2,.06c.19,.05,.36,.19,.46,.37,0,.01,0,.02,.01,.03l3.42-.5-1.94,2.8c.38,.62,.54,1.32,.42,1.99,.94,.5,1.96,.74,2.98,.74Zm-5.16-6.31c-.04-.93,.16-1.85,.59-2.68l3.03,2.15-3.62,.53Zm9,3.29c-.57,.64-1.27,1.1-2.03,1.39l-.91-3.47,2.94,2.08Zm-4.2-1.85l.93,3.54c-1.01,.11-2.04-.08-2.98-.58l2.05-2.97Z"/><path class="cls-1" d="M118.54,46.47l1.15-5.86h6.41l1.34,5.86h4.03l-6.39-27.59h-4.05l-6.3,27.59h3.8Zm3.93-19.3c.05-.24,.11-.71,.2-1.42,.09-.71,.18-1.51,.28-2.4,.09,.93,.18,1.72,.26,2.36,.08,.64,.15,1.09,.2,1.36l1.85,8.91h-4.59l1.79-8.8Z"/><polygon class="cls-1" points="183.66 69.53 193.64 69.53 193.64 66.28 187.28 66.28 187.28 61.8 193.64 61.8 193.64 58.56 187.28 58.56 187.28 54.89 193.64 54.89 193.64 51.67 183.66 51.67 183.66 69.53"/><path class="cls-1" d="M193.59,46.47V18.88h-3.38v15.44c0,1.21,.02,2.21,.06,3.02,.04,.81,.1,1.62,.18,2.43-.27-1.12-.53-2.09-.79-2.91-.25-.82-.49-1.46-.7-1.91l-7.33-16.06h-3.67v27.59h3.38v-15.76c0-1.23-.02-2.25-.06-3.06-.04-.81-.1-1.61-.18-2.4,.28,1.14,.54,2.13,.79,2.95,.25,.82,.48,1.46,.69,1.91l7.53,16.36h3.47Z"/><path class="cls-1" d="M166.71,18.88l-5.98,26.18-4.06-11.14c1.09-.23,1.97-1.01,2.66-2.36,.69-1.34,1.03-2.96,1.03-4.86,0-2.61-.5-4.57-1.5-5.87-1-1.3-2.51-1.95-4.52-1.95h-5.07v27.59h3.54v-12.89l4.35,12.89h7.04l1.15-5.86h6.41l1.35,5.86h4.03l-6.39-27.59h-4.05Zm-13.37,11.76h-.53v-7.26h.53c1.36,0,2.29,.29,2.79,.86,.49,.57,.74,1.54,.74,2.89s-.23,2.2-.69,2.72c-.46,.52-1.41,.78-2.84,.78Zm13.02,5.33l1.79-8.8c.05-.24,.11-.71,.2-1.42,.09-.71,.19-1.51,.28-2.4,.09,.93,.18,1.72,.26,2.36,.08,.64,.15,1.09,.2,1.36l1.85,8.91h-4.59Z"/><path class="cls-1" d="M169.58,51.67l-3.33,10.49c-.07,.2-.14,.52-.22,.96-.08,.44-.15,.93-.21,1.48-.07-.54-.15-1.03-.23-1.45-.08-.42-.16-.75-.23-.96l-3.27-10.51h-3.8l-2.58,17.85h3.44l1.23-10.77v-.05c.15-1.2,.22-2.22,.22-3.05v-.52c.19,.92,.33,1.62,.44,2.1,.1,.48,.17,.77,.2,.88l3.53,11.41h2.04l3.59-11.41c.08-.26,.18-.64,.28-1.15,.1-.51,.21-1.11,.33-1.81,0,.07-.01,.16-.02,.25,0,.09,0,.23,0,.42,0,.35,.02,.73,.05,1.13,.03,.41,.09,1.01,.19,1.81l1.24,10.77h3.44l-2.59-17.85h-3.74Z"/><path class="cls-1" d="M29.25,21.96c.24,0,.48-.01,.72-.03,0-.22,.03-.44,.09-.65,.16-.61,.54-1.13,1.07-1.51-.4-.07-.7-.37-.7-.73,0-.41,.39-.75,.87-.75,.47,0,.87,.34,.86,.75,0,.09-.02,.18-.06,.27,.01,0,.02,0,.03,0,.14-.19,.37-.31,.62-.29l.28,.02s.07-.08,.11-.12c-.04-.15-.07-.3-.1-.46-.05-.27-.08-.54-.09-.81-.13-.13-.21-.3-.21-.48,0-.18,.08-.35,.22-.48,.08-1.03,.38-2.04,.9-2.95-1.22-.76-2.83-1.22-4.6-1.22-3.79,0-6.87,2.12-6.87,4.73s3.08,4.73,6.87,4.73Zm1.74-7.83c.47,0,.87,.36,.87,.75,0,.41-.4,.73-.88,.73-.49,0-.86-.32-.86-.74,0-.41,.4-.75,.87-.74Zm-3.18,5.89c-.47,0-.87-.34-.86-.75,0-.41,.39-.74,.87-.74s.87,.34,.86,.74c0,.41-.39,.75-.87,.75Zm1.36-3.68c.47,0,.86,.33,.86,.75,0,.42-.37,.74-.86,.74-.48,0-.87-.33-.87-.74,0-.4,.4-.75,.87-.75Zm-1.95-2.23c.48,0,.87,.34,.86,.74,0,.41-.39,.75-.87,.75-.47,0-.87-.34-.86-.75,0-.41,.39-.74,.87-.74Zm-2.31,1.89c.48,0,.87,.33,.87,.74,0,.4-.4,.75-.87,.75-.47,0-.86-.33-.86-.75,0-.42,.37-.74,.86-.74Z"/><path class="cls-1" d="M150.79,62.18c0,1.46-.32,2.57-.95,3.32-.63,.75-1.57,1.12-2.8,1.12s-2.15-.37-2.77-1.12c-.62-.74-.93-1.85-.93-3.32v-10.51h-3.6v11.11c0,2.42,.61,4.23,1.82,5.43,1.21,1.19,3.06,1.79,5.54,1.79s4.27-.6,5.48-1.79c1.21-1.2,1.82-3.01,1.82-5.43v-11.11h-3.6v10.51Z"/><path class="cls-1" d="M250.61,18.88l-2.44,7.52c-.17,.54-.31,1.09-.45,1.66-.13,.56-.25,1.17-.36,1.81-.14-.75-.27-1.42-.4-2-.13-.58-.25-1.06-.37-1.43l-2.45-7.56h-4.15l5.61,15v12.59h3.54v-12.59l5.61-15h-4.14Z"/><polygon class="cls-1" points="209.41 54.92 213.56 54.92 213.56 69.53 217.19 69.53 217.19 54.92 221.34 54.92 221.34 51.67 209.41 51.67 209.41 54.92"/><path class="cls-1" d="M267.4,18.88l-3.25,16.21c-.07,.31-.14,.81-.21,1.48-.08,.67-.14,1.43-.2,2.29-.07-.84-.14-1.59-.22-2.24-.08-.65-.15-1.15-.22-1.49l-3.19-16.25h-3.71l-2.52,27.59h3.36l1.2-16.64v-.07c.15-1.86,.22-3.43,.22-4.71v-.81c.18,1.42,.32,2.5,.42,3.24,.1,.74,.17,1.19,.2,1.36l3.45,17.64h1.99l3.51-17.64c.08-.4,.18-1,.28-1.78,.1-.79,.21-1.72,.32-2.8,0,.11-.01,.24-.02,.39,0,.14,0,.36,0,.65,0,.54,.02,1.13,.05,1.75,.03,.63,.09,1.56,.18,2.79l1.21,16.64h3.36l-2.53-27.59h-3.65Z"/><path class="cls-1" d="M240.29,31.92h-7.54v4.86h3.98v.3c0,1.47-.36,2.66-1.09,3.57-.72,.91-1.67,1.36-2.83,1.36-1.58,0-2.87-.86-3.85-2.57-.98-1.72-1.48-3.97-1.48-6.76s.49-5.11,1.47-6.8c.98-1.7,2.29-2.55,3.93-2.55,.86,0,1.62,.27,2.27,.82,.66,.55,1.28,1.43,1.88,2.67l2.39-2.94c-.88-1.87-1.89-3.28-3.01-4.22-1.12-.94-2.36-1.41-3.71-1.41-2.56,0-4.67,1.36-6.35,4.09-1.67,2.73-2.51,6.18-2.51,10.35s.83,7.68,2.5,10.41c1.67,2.73,3.79,4.1,6.36,4.1,2.25,0,4.08-1.28,5.49-3.85,1.42-2.56,2.13-5.91,2.13-10.05,0-.39,0-.68,0-.87,0-.19-.01-.36-.03-.53Z"/><path class="cls-1" d="M228.86,59.18c-.18-.09-.45-.21-.8-.37-1.75-.78-2.62-1.64-2.62-2.59,0-.6,.22-1.09,.66-1.47,.44-.38,1.02-.57,1.74-.57,.59,0,1.1,.13,1.53,.39,.42,.26,.76,.64,1.01,1.16l2.14-2.16c-.57-.81-1.23-1.4-1.97-1.78-.75-.38-1.63-.57-2.66-.57-1.77,0-3.21,.47-4.31,1.42-1.11,.95-1.66,2.16-1.66,3.63,0,1.07,.29,2,.86,2.78,.57,.78,1.6,1.57,3.08,2.38,.31,.17,.73,.39,1.26,.66,1.65,.84,2.47,1.68,2.47,2.52,0,.72-.25,1.28-.74,1.71-.49,.42-1.17,.63-2.02,.63-.7,0-1.34-.19-1.9-.57-.56-.38-.97-.9-1.23-1.56l-2.01,2.4c.46,.89,1.15,1.56,2.07,2.04,.93,.47,2.04,.71,3.34,.71,1.83,0,3.29-.5,4.37-1.49,1.09-1,1.63-2.33,1.63-4.01,0-1.11-.35-2.11-1.04-2.98-.69-.87-1.76-1.65-3.19-2.34Z"/><path class="cls-1" d="M200.69,51.67l-6.45,17.85h3.89l1.18-3.79h6.57l1.38,3.79h4.13l-6.55-17.85h-4.15Zm-.36,11.06l1.83-5.69c.05-.15,.12-.46,.21-.92,.09-.46,.19-.98,.29-1.55,.09,.6,.18,1.11,.27,1.52,.09,.41,.15,.71,.21,.88l1.9,5.77h-4.7Z"/><path class="cls-1" d="M61.39,17.73c.01,.39,0,.79-.04,1.19-.04,.38-.11,.74-.22,1.08,1.71,.7,2.15,1.3,2.15,1.48,0,.26-.97,1.47-5.7,2.55-4.15,.95-9.69,1.47-15.59,1.47s-11.44-.52-15.59-1.47c-4.74-1.08-5.7-2.29-5.7-2.55,0-.18,.44-.78,2.16-1.48-.54-.57-.93-1.23-1.12-1.92-1.07,.46-1.87,.97-2.41,1.53H1.14l-1.14,1.14v26.2l1.14,1.14h2.93s1.21,0,1.21,0c0-5.53,4.5-10.02,10.02-10.02s10.02,4.5,10.02,10.02h1.21s8.12,0,8.12,0l1.1-.86,4.04-13.52-.57-1.28c-1.78-.94-2.89-2.78-2.89-4.8,0-.02,0-.05,0-.07,1.83,.11,3.72,.16,5.65,.16s3.92-.06,5.78-.17c0,.03,0,.05,0,.08,0,2.2-1.31,4.16-3.34,5l-.45,1.54,8.13,21.96-41.65,10.69,.28,2.24H54.31l1.14-1.14V26.69c.92-.16,1.8-.33,2.62-.52,4.99-1.14,7.42-2.68,7.42-4.7,0-1.5-1.35-2.74-4.1-3.75Zm-24,16.22l-3.62,11.85h-6.38c-1.07-5.7-6.08-10.03-12.08-10.03s-11.01,4.33-12.08,10.03h-.95V21.86H18.51c.3,1.83,2.72,3.24,7.39,4.31,2.36,.54,5.14,.95,8.17,1.2,0,.08-.01,.15-.01,.23,0,2.56,1.26,4.91,3.33,6.34Zm15.79,32.82H19.75l33.42-8.57v8.57Zm0-13.59l-6.63-19.11c2.16-1.4,3.49-3.81,3.49-6.45,0-.08,0-.16,0-.24,1.08-.09,2.13-.21,3.14-.34v26.14Z"/><polygon class="cls-1" points="23.28 29.56 19.93 35.2 20.36 35.56 25.37 31.33 25.37 30.89 23.71 29.49 23.28 29.56"/><path class="cls-1" d="M144.75,44.44c1.18-1.85,1.78-4.64,1.78-8.39V18.88h-3.52v16.25c0,2.26-.31,3.97-.93,5.13-.62,1.16-1.53,1.73-2.74,1.73s-2.1-.57-2.7-1.72c-.6-1.15-.91-2.86-.91-5.14V18.88h-3.52v17.17c0,3.74,.59,6.54,1.78,8.39s2.99,2.77,5.41,2.77,4.16-.92,5.35-2.77Z"/><path class="cls-1" d="M71.18,33.58l4.35,12.89h4.08l-4.57-12.55c1.09-.23,1.97-1.01,2.66-2.36,.69-1.34,1.03-2.96,1.03-4.86,0-2.61-.5-4.57-1.5-5.87-1-1.3-2.51-1.95-4.52-1.95h-5.07v27.59h3.54v-12.89Zm0-10.2h.53c1.36,0,2.29,.29,2.79,.86,.49,.57,.74,1.54,.74,2.89s-.23,2.2-.69,2.72c-.46,.52-1.41,.78-2.84,.78h-.53v-7.26Z"/><polygon class="cls-1" points="14.66 27.35 14.35 27.66 14.97 34.19 15.53 34.23 17.08 27.85 16.83 27.5 14.66 27.35"/><polygon class="cls-1" points="7.93 28.77 6.04 29.84 5.96 30.27 10.08 35.37 10.57 35.1 8.34 28.92 7.93 28.77"/><rect class="cls-1" x="113.13" y="51.67" width="3.63" height="17.85"/><path class="cls-1" d="M84.02,54.01c-.9-.87-1.94-1.55-3.12-2.03-1.17-.48-2.38-.72-3.63-.72s-2.47,.24-3.65,.72c-1.18,.48-2.22,1.15-3.12,2.03-.91,.88-1.6,1.88-2.07,3.01-.47,1.13-.71,2.33-.71,3.62,0,1.43,.3,2.77,.9,4.01,.6,1.24,1.46,2.31,2.58,3.21,.87,.69,1.83,1.22,2.87,1.59,1.04,.37,2.11,.55,3.2,.55,1.24,0,2.45-.23,3.61-.71,1.16-.47,2.21-1.15,3.13-2.04,.89-.86,1.58-1.86,2.05-3,.48-1.14,.71-2.35,.71-3.62s-.24-2.48-.71-3.61c-.47-1.13-1.16-2.13-2.06-3.01Zm-2.74,10.88c-1.05,1.13-2.39,1.7-4.01,1.7s-3-.56-4.05-1.69c-1.05-1.13-1.57-2.55-1.57-4.27s.53-3.12,1.6-4.27c1.07-1.15,2.41-1.73,4.03-1.73s2.92,.58,3.99,1.73c1.07,1.15,1.6,2.58,1.6,4.27s-.53,3.13-1.58,4.26Z"/><path class="cls-1" d="M132.06,51.67l-3.33,10.49c-.07,.2-.14,.52-.22,.96-.08,.44-.15,.93-.21,1.48-.07-.54-.15-1.03-.23-1.45-.08-.42-.16-.75-.23-.96l-3.27-10.51h-3.8l-2.58,17.85h3.44l1.23-10.77v-.05c.15-1.2,.22-2.22,.22-3.05v-.52c.19,.92,.33,1.62,.43,2.1,.11,.48,.17,.77,.2,.88l3.53,11.41h2.04l3.59-11.41c.09-.26,.18-.64,.28-1.15,.1-.51,.21-1.11,.33-1.81,0,.07-.01,.16-.02,.25,0,.09,0,.23,0,.42,0,.35,.02,.73,.05,1.13,.03,.41,.09,1.01,.19,1.81l1.24,10.77h3.44l-2.6-17.85h-3.74Z"/><path class="cls-1" d="M93.07,51.67h-4.17v17.85h3.65v-6.82h1c1.89,0,3.37-.49,4.44-1.48,1.07-.98,1.6-2.34,1.6-4.07,0-1.87-.53-3.25-1.59-4.15-1.06-.9-2.71-1.34-4.93-1.34Zm2.15,7.42c-.45,.43-1.17,.65-2.15,.65h-.52v-5.24h.52c.99,0,1.71,.2,2.15,.6,.45,.4,.67,1.04,.67,1.92,0,.95-.23,1.64-.67,2.07Z"/><polygon class="cls-1" points="99.7 54.92 103.85 54.92 103.85 69.53 107.49 69.53 107.49 54.92 111.64 54.92 111.64 51.67 99.7 51.67 99.7 54.92"/></g></g></svg>